<svg xmlns="http://www.w3.org/2000/svg" xmlns:xlink="http://www.w3.org/1999/xlink" width="500" zoomAndPan="magnify" viewBox="0 0 375 374.999991" height="500" preserveAspectRatio="xMidYMid meet" version="1.2"><defs><clipPath id="9fa9acbe0a"><path d="M 272.796875 200.808594 L 318.640625 200.808594 L 318.640625 213.996094 L 272.796875 213.996094 Z M 272.796875 200.808594 "/></clipPath><clipPath id="e62b48b665"><path d="M 318.640625 213.996094 L 282.652344 213.996094 L 272.820312 207.402344 L 282.652344 200.808594 L 318.640625 200.808594 L 308.8125 207.402344 Z M 318.640625 213.996094 "/></clipPath><clipPath id="1b3061badb"><path d="M 278.542969 220.121094 L 324.386719 220.121094 L 324.386719 233.308594 L 278.542969 233.308594 Z M 278.542969 220.121094 "/></clipPath><clipPath id="f7535d61cc"><path d="M 278.542969 220.121094 L 314.53125 220.121094 L 324.363281 226.714844 L 314.53125 233.308594 L 278.542969 233.308594 L 288.371094 226.714844 Z M 278.542969 220.121094 "/></clipPath><clipPath id="55ff3dac99"><path d="M 88 132 L 314 132 L 314 333.789062 L 88 333.789062 Z M 88 132 "/></clipPath><clipPath id="1706150962"><path d="M 37.5 83 L 113 83 L 113 230 L 37.5 230 Z M 37.5 83 "/></clipPath><clipPath id="55419ef429"><path d="M 85 41.289062 L 124 41.289062 L 124 167 L 85 167 Z M 85 41.289062 "/></clipPath></defs><g id="8d9707c61b"><path style="fill:none;stroke-width:2;stroke-linecap:butt;stroke-linejoin:miter;stroke:#14281d;stroke-opacity:1;stroke-miterlimit:4;" d="M -0.00195257 0.99961 L 499.99808 0.99961 " transform="matrix(-0.75,0,0,-0.75,374.990723,272.394239)"/><path style="fill:none;stroke-width:2;stroke-linecap:butt;stroke-linejoin:miter;stroke:#14281d;stroke-opacity:1;stroke-miterlimit:4;" d="M 0.0020047 0.999058 L 398.128298 0.998735 " transform="matrix(-0.749762,0.00188322,-0.00188322,-0.749762,298.597134,296.959989)"/><path style="fill:none;stroke-width:4;stroke-linecap:round;stroke-linejoin:miter;stroke:#14281d;stroke-opacity:1;stroke-miterlimit:4;" d="M 1.999099 1.99916 L 96.697022 1.99916 " transform="matrix(0,0.75,-0.75,0,300.491558,190.547551)"/><g clip-rule="nonzero" clip-path="url(#9fa9acbe0a)"><g clip-rule="nonzero" clip-path="url(#e62b48b665)"><path style=" stroke:none;fill-rule:nonzero;fill:#14281d;fill-opacity:1;" d="M 318.640625 213.996094 L 272.847656 213.996094 L 272.847656 200.808594 L 318.640625 200.808594 Z M 318.640625 213.996094 "/></g></g><g clip-rule="nonzero" clip-path="url(#1b3061badb)"><g clip-rule="nonzero" clip-path="url(#f7535d61cc)"><path style=" stroke:none;fill-rule:nonzero;fill:#14281d;fill-opacity:1;" d="M 278.542969 220.121094 L 324.335938 220.121094 L 324.335938 233.308594 L 278.542969 233.308594 Z M 278.542969 220.121094 "/></g></g><g clip-rule="nonzero" clip-path="url(#55ff3dac99)"><path style=" stroke:none;fill-rule:nonzero;fill:#14281d;fill-opacity:1;" d="M 95.316406 376.859375 C 96.5 369.289062 96.710938 358.691406 95.898438 350.992188 C 95.488281 347.132812 94.835938 343.3125 93.933594 339.539062 C 93.46875 337.605469 92.890625 335.464844 92.34375 333.089844 C 91.722656 330.5 91.292969 327.878906 91.0625 325.230469 C 90.882812 322.621094 90.886719 320.015625 91.082031 317.40625 C 91.234375 315.035156 91.449219 312.882812 91.578125 310.957031 C 91.789062 307.070312 91.742188 303.1875 91.4375 299.304688 C 91.117188 295.25 90.625 291.078125 90.113281 286.773438 C 89.601562 282.46875 89.082031 277.992188 88.78125 273.386719 C 88.726562 272.222656 88.613281 271.09375 88.601562 269.898438 L 88.53125 266.351562 L 88.632812 262.734375 C 88.660156 261.53125 88.824219 260.289062 88.914062 259.070312 C 89.421875 254.171875 90.503906 249.15625 92.367188 244.367188 C 94.28125 239.566406 96.6875 235.644531 98.570312 232.078125 C 100.425781 228.554688 102.019531 224.917969 103.351562 221.164062 C 106.070312 213.574219 107.859375 205.4375 109.335938 197.085938 C 109.703125 194.996094 110.058594 192.894531 110.398438 190.777344 L 110.90625 187.59375 L 111.160156 185.996094 L 111.222656 185.59375 L 111.324219 185.085938 L 111.53125 184.09375 C 111.679688 183.433594 111.789062 182.761719 111.980469 182.121094 L 112.597656 180.210938 L 112.917969 179.265625 L 113.3125 178.363281 L 114.113281 176.570312 C 114.402344 175.988281 114.726562 175.441406 115.035156 174.878906 C 115.339844 174.320312 115.640625 173.742188 116 173.238281 C 116.695312 172.203125 117.363281 171.128906 118.128906 170.1875 C 121.089844 166.304688 124.417969 163.046875 127.726562 160.058594 C 131.039062 157.066406 134.367188 154.300781 137.464844 151.5 C 138.257812 150.800781 138.984375 150.089844 139.738281 149.390625 L 142.101562 147.121094 C 143.707031 145.601562 145.363281 144.058594 147.128906 142.570312 C 148.929688 141.042969 150.816406 139.636719 152.792969 138.347656 C 154.820312 137.074219 156.996094 135.871094 159.300781 135.027344 C 163.859375 133.230469 168.671875 132.410156 173.285156 132.265625 C 177.898438 132.117188 182.40625 132.464844 186.765625 132.925781 C 191.121094 133.386719 195.390625 133.972656 199.597656 134.324219 C 201.699219 134.492188 203.777344 134.617188 205.859375 134.660156 C 207.9375 134.703125 210.082031 134.636719 212.246094 134.59375 C 216.578125 134.5 221.097656 134.429688 225.65625 135.15625 C 230.21875 135.878906 234.339844 137.328125 238.402344 138.210938 C 240.425781 138.648438 242.46875 138.941406 244.535156 139.09375 C 246.621094 139.234375 248.707031 139.253906 250.792969 139.15625 C 254.992188 138.929688 259.203125 138.292969 263.394531 137.417969 C 267.582031 136.539062 271.753906 135.46875 275.949219 134.402344 C 277.035156 134.109375 278.136719 133.882812 279.25 133.726562 C 280.421875 133.5625 281.589844 133.585938 282.753906 133.789062 C 285.074219 134.21875 287.0625 135.289062 288.984375 136.242188 C 296.503906 140.191406 305.6875 140.960938 313.910156 138.222656 C 305.863281 141.40625 296.417969 141.183594 288.390625 137.507812 C 286.410156 136.644531 284.464844 135.761719 282.480469 135.515625 C 280.5 135.273438 278.550781 135.777344 276.515625 136.417969 C 272.390625 137.707031 268.253906 139.03125 264.015625 140.132812 C 259.78125 141.238281 255.472656 142.160156 251.050781 142.636719 C 248.820312 142.863281 246.589844 142.960938 244.347656 142.929688 C 242.089844 142.886719 239.839844 142.683594 237.609375 142.328125 C 233.175781 141.597656 229.019531 140.421875 224.992188 140 C 220.960938 139.578125 216.792969 139.847656 212.492188 140.167969 C 210.34375 140.335938 208.15625 140.507812 205.921875 140.59375 C 203.6875 140.683594 201.433594 140.664062 199.21875 140.59375 C 194.785156 140.464844 190.4375 140.101562 186.191406 139.882812 C 181.949219 139.664062 177.769531 139.566406 173.761719 139.929688 C 169.753906 140.289062 165.957031 141.183594 162.546875 142.746094 C 159.140625 144.25 156.101562 146.617188 153.144531 149.371094 C 151.675781 150.75 150.234375 152.242188 148.789062 153.761719 L 146.59375 156.113281 C 145.808594 156.925781 145.03125 157.773438 144.238281 158.546875 C 141.085938 161.722656 137.914062 164.664062 134.964844 167.632812 C 132.011719 170.601562 129.316406 173.597656 127.203125 176.714844 C 126.636719 177.484375 126.222656 178.285156 125.746094 179.066406 C 125.519531 179.449219 125.316406 179.84375 125.136719 180.25 C 124.949219 180.644531 124.734375 181.039062 124.566406 181.429688 L 124.117188 182.628906 L 123.886719 183.222656 L 123.734375 183.824219 L 123.410156 185.019531 C 123.3125 185.417969 123.289062 185.824219 123.21875 186.222656 L 123.125 186.820312 L 123.074219 187.121094 L 123.03125 187.519531 L 122.863281 189.140625 L 122.523438 192.382812 C 122.292969 194.554688 122.042969 196.730469 121.78125 198.917969 C 120.710938 207.660156 119.285156 216.582031 116.648438 225.453125 C 115.324219 229.941406 113.679688 234.3125 111.722656 238.566406 C 109.769531 242.742188 107.875 246.363281 106.785156 249.6875 C 104.632812 256.398438 104.460938 263.855469 105.492188 271.875 C 106.433594 279.867188 108.308594 288.300781 109.511719 297.398438 C 110.136719 302.125 110.445312 306.875 110.4375 311.640625 C 110.347656 316.40625 110.097656 320.339844 110.539062 323.277344 C 110.917969 326.167969 112.136719 329.738281 113.496094 334.210938 C 114.855469 338.789062 115.917969 343.441406 116.675781 348.160156 C 118.199219 357.683594 118.476562 367.242188 117.503906 376.839844 Z M 95.316406 376.859375 "/></g><path style=" stroke:none;fill-rule:nonzero;fill:#14281d;fill-opacity:1;" d="M 101.066406 242.65625 C 109.074219 240.40625 116.640625 236.863281 123.964844 232.632812 C 131.300781 228.4375 138.445312 223.714844 145.96875 219.519531 C 153.492188 215.328125 161.363281 211.664062 169.679688 209.316406 C 178 206.96875 186.726562 205.980469 195.261719 207.132812 L 195.402344 207.152344 L 195.484375 207.246094 C 196.386719 208.265625 197.421875 209.117188 198.589844 209.804688 C 199.761719 210.515625 200.992188 211.089844 202.289062 211.53125 C 204.886719 212.40625 207.640625 212.757812 210.375 213.109375 C 207.628906 212.875 204.863281 212.640625 202.183594 211.867188 C 200.839844 211.46875 199.554688 210.9375 198.324219 210.261719 C 197.070312 209.589844 195.945312 208.742188 194.960938 207.714844 L 195.183594 207.828125 C 186.722656 207.054688 178.207031 208.402344 170.203125 211.039062 C 162.199219 213.675781 154.625 217.582031 147.421875 222.015625 C 140.214844 226.449219 133.300781 231.445312 126.007812 236.042969 C 122.34375 238.378906 118.570312 240.523438 114.691406 242.476562 C 110.769531 244.433594 106.726562 246.101562 102.566406 247.480469 Z M 101.066406 242.65625 "/><path style=" stroke:none;fill-rule:nonzero;fill:#14281d;fill-opacity:1;" d="M 111.476562 188.015625 C 112.046875 184.53125 112.984375 181.441406 113.785156 178.558594 C 114.191406 177.125 114.566406 175.742188 114.867188 174.402344 C 115.023438 173.726562 115.148438 173.085938 115.265625 172.421875 L 115.632812 170.171875 C 116.613281 164.175781 117.542969 158.25 118.125 152.339844 C 118.71875 146.476562 118.816406 140.214844 120.078125 133.816406 C 120.699219 130.578125 121.679688 127.453125 123.019531 124.441406 C 124.347656 121.503906 125.925781 118.707031 127.75 116.046875 C 131.3125 110.8125 135.40625 106.199219 139.269531 101.539062 C 141.203125 99.210938 143.09375 96.875 144.84375 94.445312 C 145.714844 93.234375 146.554688 92.003906 147.335938 90.742188 C 148.117188 89.480469 148.898438 88.191406 149.460938 86.929688 C 150.023438 85.664062 150.355469 84.402344 150.304688 83.035156 C 150.257812 81.664062 149.96875 80.214844 149.671875 78.714844 C 149.074219 75.703125 148.558594 72.675781 148.164062 69.640625 C 147.371094 63.570312 147 57.472656 147.042969 51.351562 C 147.449219 57.429688 148.265625 63.453125 149.5 69.421875 C 150.109375 72.390625 150.839844 75.332031 151.648438 78.25 C 152.054688 79.707031 152.511719 81.226562 152.671875 82.902344 C 152.757812 83.761719 152.738281 84.621094 152.613281 85.476562 C 152.476562 86.316406 152.265625 87.136719 151.972656 87.933594 C 151.40625 89.503906 150.6875 90.875 149.972656 92.265625 C 149.261719 93.65625 148.46875 95 147.65625 96.328125 C 146.035156 98.984375 144.28125 101.527344 142.492188 104.027344 C 138.929688 109.019531 135.265625 113.847656 132.34375 118.933594 C 130.886719 121.425781 129.660156 124.027344 128.664062 126.734375 C 127.710938 129.390625 127.074219 132.121094 126.753906 134.925781 C 126.058594 140.578125 126.382812 146.5625 126.230469 152.847656 C 126.082031 159.097656 125.574219 165.285156 125.035156 171.378906 L 124.832031 173.660156 C 124.746094 174.503906 124.644531 175.371094 124.519531 176.191406 C 124.269531 177.851562 123.960938 179.4375 123.648438 180.964844 C 123.023438 184.003906 122.421875 186.824219 122.207031 189.390625 Z M 111.476562 188.015625 "/><g clip-rule="nonzero" clip-path="url(#1706150962)"><path style=" stroke:none;fill-rule:nonzero;fill:#14281d;fill-opacity:1;" d="M 104.101562 229.5625 L 94.890625 211.109375 C 91.765625 204.941406 88.9375 198.773438 85.328125 193.464844 C 83.558594 190.835938 81.289062 188.203125 79.234375 185.039062 C 78.152344 183.402344 77.253906 181.675781 76.53125 179.851562 C 76.179688 178.925781 75.9375 178.175781 75.699219 177.636719 C 75.601562 177.417969 75.488281 177.203125 75.359375 177 C 75.324219 176.949219 75.332031 176.949219 75.261719 176.855469 L 75.039062 176.570312 L 74.636719 176.03125 C 74.121094 175.339844 73.636719 174.679688 73.152344 174.074219 C 72.910156 173.773438 72.671875 173.484375 72.441406 173.230469 C 72.253906 173.015625 72.054688 172.8125 71.839844 172.621094 C 71.816406 172.59375 71.789062 172.574219 71.761719 172.550781 L 71.738281 172.527344 L 71.59375 172.421875 L 71 172.003906 C 70.597656 171.726562 70.207031 171.441406 69.835938 171.125 C 69.078125 170.523438 68.359375 169.878906 67.675781 169.195312 C 64.917969 166.441406 63.007812 163.183594 61.371094 160.097656 L 58.988281 155.515625 C 58.59375 154.769531 58.191406 154.035156 57.785156 153.308594 C 57.378906 152.582031 56.964844 151.910156 56.515625 151.21875 C 54.726562 148.453125 52.574219 145.761719 50.601562 142.816406 C 46.597656 136.828125 44.144531 130.191406 42.160156 123.566406 C 41.167969 120.242188 40.300781 116.902344 39.457031 113.570312 C 38.613281 110.238281 37.6875 106.828125 37.5625 103.285156 C 37.503906 101.511719 37.671875 99.757812 38.070312 98.03125 C 38.46875 96.339844 38.953125 94.679688 39.535156 93.042969 C 40.078125 91.414062 40.644531 89.792969 41.074219 88.136719 C 41.296875 87.3125 41.472656 86.472656 41.605469 85.628906 C 41.683594 85.207031 41.710938 84.785156 41.765625 84.355469 C 41.816406 83.925781 41.84375 83.460938 41.515625 83.152344 C 41.867188 83.4375 41.851562 83.945312 41.839844 84.359375 C 41.832031 84.769531 41.816406 85.222656 41.761719 85.648438 C 41.679688 86.507812 41.550781 87.363281 41.378906 88.207031 C 41.042969 89.90625 40.582031 91.566406 40.136719 93.222656 C 39.226562 96.527344 38.457031 99.878906 38.820312 103.203125 C 39.140625 106.542969 40.210938 109.769531 41.265625 113.039062 C 42.320312 116.308594 43.375 119.566406 44.546875 122.765625 C 45.691406 125.953125 47.007812 129.070312 48.492188 132.117188 C 50.011719 135.125 51.65625 138.015625 53.683594 140.621094 C 55.699219 143.273438 58.011719 145.820312 60.140625 148.703125 C 62.3125 151.648438 64 154.691406 65.785156 157.5625 C 67.570312 160.429688 69.378906 163.035156 71.652344 165.003906 C 72.214844 165.5 72.804688 165.960938 73.421875 166.382812 C 73.722656 166.605469 74.035156 166.8125 74.359375 166.996094 L 74.835938 167.292969 L 75.199219 167.523438 C 75.367188 167.636719 75.515625 167.742188 75.640625 167.839844 C 76.089844 168.191406 76.515625 168.574219 76.914062 168.988281 C 77.277344 169.355469 77.605469 169.714844 77.917969 170.070312 C 78.539062 170.78125 79.097656 171.480469 79.644531 172.140625 L 80.515625 173.199219 C 80.890625 173.695312 81.21875 174.21875 81.503906 174.769531 C 82.027344 175.773438 82.351562 176.648438 82.660156 177.300781 C 83.296875 178.648438 84.066406 179.914062 84.964844 181.101562 C 86.804688 183.609375 89.1875 186.0625 91.457031 188.992188 C 93.695312 191.890625 95.640625 194.925781 97.453125 197.945312 C 99.261719 200.964844 100.949219 203.941406 102.675781 206.917969 L 112.996094 224.773438 Z M 104.101562 229.5625 "/></g><g clip-rule="nonzero" clip-path="url(#55419ef429)"><path style=" stroke:none;fill-rule:nonzero;fill:#14281d;fill-opacity:1;" d="M 116.136719 166.75 C 115.632812 163.949219 115.117188 161.34375 114.253906 159.09375 C 113.851562 158.015625 113.332031 157.003906 112.683594 156.054688 L 112.445312 155.714844 L 112.136719 155.3125 L 111.507812 154.503906 C 111.082031 153.96875 110.644531 153.433594 110.203125 152.90625 C 106.640625 148.660156 102.601562 144.628906 98.589844 140.484375 C 97.453125 139.355469 96.421875 138.140625 95.492188 136.832031 C 94.566406 135.488281 93.789062 134.058594 93.167969 132.546875 C 92.5625 131.117188 92.078125 129.613281 91.648438 128.414062 C 91.171875 127.144531 90.632812 125.878906 90.046875 124.589844 C 88.894531 122.019531 87.566406 119.335938 86.652344 116.359375 C 86.183594 114.863281 85.851562 113.335938 85.65625 111.78125 L 85.539062 110.605469 C 85.519531 110.394531 85.519531 110.117188 85.511719 109.878906 C 85.507812 109.636719 85.542969 109.382812 85.558594 109.140625 C 85.675781 108.242188 85.914062 107.375 86.269531 106.542969 C 86.910156 105.03125 87.621094 103.851562 87.96875 102.753906 C 88.148438 102.132812 88.296875 101.507812 88.402344 100.871094 L 88.777344 98.765625 C 89.03125 97.328125 89.304688 95.835938 89.835938 94.3125 L 90.210938 93.289062 C 90.320312 92.96875 90.453125 92.652344 90.546875 92.324219 C 90.75 91.675781 90.953125 91.023438 91.109375 90.351562 C 92.441406 85.007812 92.351562 79.269531 92.261719 73.539062 L 92.214844 69.21875 C 92.183594 67.742188 92.257812 66.269531 92.433594 64.804688 C 92.621094 63.289062 93.054688 61.851562 93.738281 60.484375 C 94.414062 59.144531 95.257812 57.953125 96.125 56.785156 C 96.988281 55.621094 97.859375 54.503906 98.613281 53.304688 C 99.382812 52.105469 100.0625 50.855469 100.65625 49.558594 C 101.847656 46.9375 102.660156 44.203125 103.089844 41.355469 C 102.816406 44.246094 102.152344 47.046875 101.097656 49.75 C 100.570312 51.105469 99.949219 52.414062 99.238281 53.683594 C 98.535156 54.957031 97.707031 56.15625 96.917969 57.347656 C 96.132812 58.539062 95.386719 59.738281 94.839844 61.003906 C 94.292969 62.269531 93.976562 63.585938 93.890625 64.960938 C 93.804688 66.363281 93.820312 67.761719 93.929688 69.160156 L 94.21875 73.449219 C 94.625 79.164062 95.097656 85.046875 93.988281 90.976562 C 93.859375 91.71875 93.675781 92.449219 93.492188 93.183594 C 93.410156 93.550781 93.285156 93.910156 93.179688 94.273438 L 92.875 95.289062 C 92.523438 96.503906 92.339844 97.859375 92.171875 99.261719 L 91.910156 101.417969 C 91.820312 102.207031 91.679688 102.988281 91.496094 103.757812 C 91.046875 105.425781 90.324219 106.769531 89.925781 107.9375 C 89.738281 108.441406 89.621094 108.964844 89.574219 109.503906 C 89.570312 109.734375 89.582031 109.960938 89.613281 110.1875 L 89.769531 111.152344 C 90.015625 112.441406 90.371094 113.699219 90.839844 114.925781 C 91.761719 117.40625 93.132812 119.820312 94.492188 122.410156 C 95.167969 123.703125 95.84375 125.035156 96.46875 126.425781 C 97.101562 127.894531 97.5625 129.105469 98.148438 130.289062 C 99.28125 132.65625 100.699219 134.398438 102.746094 136.214844 C 106.957031 140.09375 111.296875 143.953125 115.402344 148.285156 C 115.910156 148.828125 116.414062 149.378906 116.921875 149.941406 L 117.667969 150.785156 L 118.042969 151.214844 L 118.457031 151.730469 C 119.523438 153.109375 120.40625 154.597656 121.109375 156.191406 C 122.484375 159.25 123.210938 162.289062 123.898438 165.097656 Z M 116.136719 166.75 "/></g><path style=" stroke:none;fill-rule:nonzero;fill:#14281d;fill-opacity:1;" d="M 329.746094 89.804688 C 328.121094 91.242188 326.675781 92.894531 325.3125 94.5625 C 323.945312 96.230469 322.460938 97.800781 320.597656 98.75 C 319.644531 99.214844 318.660156 99.617188 317.652344 99.960938 C 316.640625 100.335938 315.617188 100.710938 314.613281 101.105469 C 306.578125 104.199219 298.90625 108.011719 291.589844 112.546875 C 285.851562 112.300781 280.121094 112.355469 274.390625 112.714844 C 271.472656 112.90625 268.5625 113.171875 265.652344 113.511719 C 264.203125 113.691406 262.757812 113.859375 261.261719 114.121094 C 259.730469 114.371094 258.234375 114.753906 256.769531 115.269531 C 255.335938 115.785156 253.941406 116.390625 252.582031 117.082031 C 251.90625 117.410156 251.230469 117.757812 250.585938 118.125 C 249.9375 118.492188 249.28125 118.863281 248.632812 119.242188 C 246.082031 120.78125 243.628906 122.460938 241.273438 124.285156 C 236.570312 127.894531 232.230469 131.863281 227.988281 135.839844 L 231.515625 139.453125 C 235.570312 135.339844 239.621094 131.308594 243.980469 127.679688 C 246.136719 125.863281 248.394531 124.175781 250.75 122.625 C 251.339844 122.246094 251.921875 121.855469 252.527344 121.507812 C 253.128906 121.15625 253.726562 120.792969 254.339844 120.464844 C 255.539062 119.789062 256.777344 119.1875 258.054688 118.667969 C 260.5 117.652344 263.253906 117.21875 266.113281 116.746094 C 268.945312 116.296875 271.789062 115.917969 274.644531 115.609375 C 280.367188 115.003906 286.105469 114.710938 291.859375 114.722656 L 292.214844 114.722656 L 292.476562 114.542969 C 299.59375 109.683594 307.105469 105.539062 315.011719 102.109375 C 316 101.675781 316.992188 101.265625 317.988281 100.847656 C 319.015625 100.449219 320.015625 99.988281 320.984375 99.464844 C 322.960938 98.347656 324.414062 96.609375 325.726562 94.90625 C 327.027344 93.171875 328.371094 91.5 329.925781 90.007812 C 331.476562 88.492188 333.15625 87.136719 334.964844 85.9375 C 333.101562 87.0625 331.363281 88.351562 329.746094 89.804688 Z M 329.746094 89.804688 "/><path style=" stroke:none;fill-rule:nonzero;fill:#14281d;fill-opacity:1;" d="M 159.023438 138.511719 C 159.023438 136.503906 159.023438 134.417969 159.191406 132.261719 C 159.335938 130.011719 159.726562 127.804688 160.375 125.640625 C 160.714844 124.515625 161.148438 123.425781 161.675781 122.371094 C 162.195312 121.359375 162.785156 120.390625 163.441406 119.460938 C 164.707031 117.65625 166.074219 116.097656 167.328125 114.59375 C 167.960938 113.835938 168.550781 113.117188 169.144531 112.347656 L 170.960938 109.96875 C 172.226562 108.265625 173.621094 106.675781 175.136719 105.191406 C 178.21875 102.230469 181.695312 99.9375 185.144531 97.839844 C 186.875 96.792969 188.582031 95.785156 190.328125 94.769531 C 192.074219 93.75 193.863281 92.765625 195.722656 91.886719 C 197.589844 90.988281 199.523438 90.253906 201.523438 89.691406 C 203.53125 89.136719 205.527344 88.847656 207.433594 88.433594 C 209.339844 88.054688 211.164062 87.433594 212.902344 86.5625 C 214.65625 85.695312 216.359375 84.644531 218.117188 83.671875 C 221.621094 81.71875 225.203125 79.9375 228.867188 78.332031 C 225.339844 80.210938 221.914062 82.246094 218.585938 84.441406 C 216.921875 85.53125 215.308594 86.710938 213.550781 87.75 C 211.769531 88.816406 209.878906 89.625 207.878906 90.179688 C 205.925781 90.757812 203.984375 91.191406 202.1875 91.84375 C 200.371094 92.507812 198.625 93.320312 196.949219 94.289062 C 193.59375 96.207031 190.363281 98.574219 187.113281 100.851562 C 183.90625 103.144531 180.84375 105.539062 178.359375 108.324219 C 177.128906 109.742188 176.011719 111.246094 175.015625 112.835938 L 173.378906 115.355469 C 172.816406 116.214844 172.207031 117.089844 171.617188 117.910156 C 170.433594 119.558594 169.277344 121.117188 168.363281 122.65625 C 167.46875 124.101562 166.828125 125.65625 166.449219 127.3125 C 165.691406 130.578125 165.941406 134.292969 166.234375 138.242188 Z M 159.023438 138.511719 "/><path style=" stroke:none;fill-rule:nonzero;fill:#14281d;fill-opacity:1;" d="M 175.445312 106.574219 C 174.636719 102.277344 172.953125 98.351562 170.398438 94.804688 C 169.152344 93.035156 167.546875 91.425781 166.3125 89.496094 C 165.679688 88.539062 165.246094 87.472656 164.792969 86.472656 C 164.335938 85.472656 163.800781 84.476562 162.910156 83.785156 C 163.871094 84.371094 164.542969 85.34375 165.105469 86.304688 C 165.664062 87.265625 166.191406 88.242188 166.886719 89.078125 C 168.25 90.777344 169.984375 92.175781 171.511719 93.898438 C 174.640625 97.394531 176.882812 101.390625 178.234375 105.886719 Z M 175.445312 106.574219 "/><path style=" stroke:none;fill-rule:nonzero;fill:#14281d;fill-opacity:1;" d="M 256.847656 138.910156 C 258.414062 140.6875 259.796875 142.445312 261.289062 144 C 262.785156 145.558594 264.367188 146.910156 266.136719 147.648438 C 267.949219 148.40625 270.117188 148.671875 272.328125 148.800781 C 274.566406 148.914062 276.855469 148.988281 279.113281 149.03125 C 288.183594 149.214844 297.285156 148.820312 306.304688 147.5 C 297.414062 149.539062 288.296875 150.671875 279.152344 151.214844 C 276.859375 151.351562 274.59375 151.460938 272.273438 151.527344 C 269.957031 151.59375 267.496094 151.527344 265.011719 150.726562 C 262.480469 149.882812 260.433594 148.324219 258.648438 146.738281 C 256.859375 145.148438 255.285156 143.414062 253.710938 141.894531 Z M 256.847656 138.910156 "/><path style=" stroke:none;fill-rule:nonzero;fill:#14281d;fill-opacity:1;" d="M 249.445312 119.640625 C 249.914062 119.257812 250.328125 118.65625 250.714844 117.933594 C 251.101562 117.214844 251.503906 116.382812 251.894531 115.605469 C 252.679688 114.03125 253.445312 112.453125 254.152344 110.859375 C 255.566406 107.675781 256.769531 104.402344 257.394531 100.996094 C 257.546875 100.152344 257.664062 99.289062 257.75 98.433594 C 257.835938 97.574219 257.828125 96.792969 257.550781 96.066406 C 257.269531 95.34375 256.785156 94.621094 256.269531 93.910156 C 255.757812 93.199219 255.222656 92.503906 254.683594 91.800781 C 253.605469 90.398438 252.515625 88.976562 251.640625 87.410156 C 250.769531 85.847656 250.09375 84.167969 249.898438 82.40625 C 250.214844 84.152344 250.992188 85.765625 251.953125 87.222656 C 252.914062 88.683594 254.066406 90.015625 255.230469 91.34375 C 255.816406 92.003906 256.414062 92.671875 256.976562 93.359375 C 257.542969 94.046875 258.136719 94.757812 258.542969 95.65625 C 258.953125 96.554688 259.027344 97.601562 259.003906 98.5 C 258.976562 99.398438 258.914062 100.308594 258.816406 101.203125 C 258.402344 104.804688 257.378906 108.296875 256.152344 111.664062 C 255.539062 113.355469 254.871094 115.007812 254.1875 116.648438 C 253.835938 117.476562 253.523438 118.261719 253.132812 119.132812 C 252.746094 120 252.238281 120.9375 251.398438 121.757812 Z M 249.445312 119.640625 "/><path style=" stroke:none;fill-rule:nonzero;fill:#14281d;fill-opacity:1;" d="M 196.429688 135.09375 C 214.304688 124.976562 231.457031 113.757812 247.886719 101.425781 C 232.4375 115.128906 216.175781 127.78125 199.09375 139.382812 Z M 196.429688 135.09375 "/><path style=" stroke:none;fill-rule:nonzero;fill:#14281d;fill-opacity:1;" d="M 189.585938 206.585938 C 193.414062 203.761719 197.023438 200.59375 200.054688 196.863281 C 197.40625 200.878906 194.082031 204.453125 190.496094 207.703125 Z M 189.585938 206.585938 "/><path style=" stroke:none;fill-rule:nonzero;fill:#14281d;fill-opacity:1;" d="M 155.027344 215.929688 C 165.234375 216.199219 175.070312 218.253906 184.53125 222.097656 C 174.980469 218.734375 165.144531 217.15625 155.023438 217.367188 Z M 155.027344 215.929688 "/><path style=" stroke:none;fill-rule:nonzero;fill:#14281d;fill-opacity:1;" d="M 135.125 226.761719 C 136.753906 223.582031 138.503906 220.496094 140.339844 217.457031 C 142.179688 214.417969 144.082031 211.433594 146.117188 208.542969 C 144.390625 211.628906 142.800781 214.789062 141.292969 217.96875 C 139.785156 221.148438 138.371094 224.386719 137.101562 227.644531 Z M 135.125 226.761719 "/><path style=" stroke:none;fill-rule:nonzero;fill:#14281d;fill-opacity:1;" d="M 92.265625 252.535156 C 88.535156 241.472656 86.078125 233.21875 78.925781 226.382812 L 81.867188 223.304688 C 90.648438 231.691406 94.300781 241.070312 97.574219 250.746094 Z M 92.265625 252.535156 "/><path style=" stroke:none;fill-rule:nonzero;fill:#14281d;fill-opacity:1;" d="M 76.730469 175.539062 C 77.574219 173.378906 77.765625 170.894531 77.5625 168.390625 C 77.363281 165.890625 76.78125 163.339844 76.15625 160.75 C 75.53125 158.160156 74.867188 155.480469 74.617188 152.730469 C 74.335938 150.007812 74.292969 147.277344 74.492188 144.546875 C 74.875 139.121094 76.015625 133.851562 77.253906 128.648438 C 78.492188 123.449219 79.84375 118.28125 80.746094 113.011719 C 80.140625 118.324219 79.085938 123.582031 78.136719 128.835938 C 77.183594 134.085938 76.367188 139.359375 76.296875 144.621094 C 76.25 147.238281 76.433594 149.839844 76.851562 152.425781 C 77.226562 154.992188 78 157.476562 78.769531 160.042969 C 79.535156 162.609375 80.328125 165.246094 80.707031 168.054688 C 81.085938 170.863281 81.074219 173.839844 80.136719 176.738281 Z M 76.730469 175.539062 "/><path style=" stroke:none;fill-rule:nonzero;fill:#14281d;fill-opacity:1;" d="M 91.613281 94.433594 C 88.40625 93.011719 85.121094 91.5625 82.023438 89.714844 C 78.886719 87.882812 76.164062 85.492188 73.578125 83.121094 L 65.789062 76.011719 C 64.5 74.820312 63.171875 73.660156 61.9375 72.390625 C 60.703125 71.121094 59.570312 69.734375 58.785156 68.160156 C 60.605469 71.214844 63.539062 73.261719 66.257812 75.460938 L 74.515625 82.023438 C 77.261719 84.21875 80.007812 86.304688 83.074219 87.820312 C 86.125 89.378906 89.386719 90.558594 92.6875 91.753906 Z M 91.613281 94.433594 "/><path style=" stroke:none;fill-rule:nonzero;fill:#14281d;fill-opacity:1;" d="M 135.875 106.925781 C 135.488281 104.601562 135.109375 102.332031 134.554688 100.132812 C 133.992188 97.917969 133.238281 95.773438 132.289062 93.695312 C 130.320312 89.425781 127.660156 85.640625 124.308594 82.34375 C 128.226562 85.175781 131.515625 88.609375 134.179688 92.644531 C 135.523438 94.691406 136.671875 96.839844 137.628906 99.089844 C 138.582031 101.347656 139.335938 103.652344 140.078125 105.886719 Z M 135.875 106.925781 "/><path style=" stroke:none;fill-rule:nonzero;fill:#14281d;fill-opacity:1;" d="M 238.554688 129.375 C 244.648438 129.996094 250.742188 130.03125 256.84375 129.480469 C 262.945312 128.929688 268.9375 127.800781 274.820312 126.09375 C 269 128.28125 263.023438 129.894531 256.890625 130.929688 C 250.761719 131.964844 244.585938 132.410156 238.371094 132.257812 Z M 238.554688 129.375 "/><path style=" stroke:none;fill-rule:nonzero;fill:#14281d;fill-opacity:1;" d="M 92.894531 86.953125 C 89.714844 84.601562 87.441406 81.394531 85.609375 78.125 C 84.691406 76.480469 83.871094 74.800781 83.078125 73.121094 C 82.285156 71.4375 81.511719 69.742188 80.769531 68.039062 C 77.800781 61.222656 75.261719 54.25 73.15625 47.125 C 75.601562 54.121094 78.464844 60.941406 81.753906 67.585938 C 82.570312 69.242188 83.414062 70.882812 84.285156 72.511719 C 85.152344 74.144531 86.042969 75.753906 87.007812 77.300781 C 88.929688 80.382812 91.222656 83.246094 94.136719 85.179688 Z M 92.894531 86.953125 "/><path style=" stroke:none;fill-rule:nonzero;fill:#14281d;fill-opacity:1;" d="M 102.199219 142.617188 L 102.691406 129.066406 L 102.9375 122.289062 L 103.058594 118.898438 L 103.121094 117.210938 C 103.152344 116.691406 103.152344 116.171875 103.121094 115.648438 C 103.054688 114.78125 102.503906 113.863281 101.976562 112.824219 C 101.445312 111.78125 100.960938 110.765625 100.507812 109.710938 C 97.765625 103.351562 96.398438 96.707031 96.402344 89.78125 C 96.703125 94.300781 97.597656 98.699219 99.089844 102.972656 C 99.832031 105.085938 100.710938 107.136719 101.730469 109.128906 C 102.238281 110.125 102.78125 111.097656 103.351562 112.050781 C 103.882812 112.980469 104.664062 113.988281 104.90625 115.390625 C 104.988281 115.996094 105.03125 116.601562 105.03125 117.214844 L 105.082031 118.902344 L 105.183594 122.292969 L 105.390625 129.070312 L 105.800781 142.625 Z M 102.199219 142.617188 "/><path style=" stroke:none;fill-rule:nonzero;fill:#14281d;fill-opacity:1;" d="M 123.898438 162.378906 C 127.25 157.816406 131.640625 151.09375 133.523438 145.722656 C 134.476562 143.023438 135.296875 140.230469 136.375 137.480469 C 136.90625 136.089844 137.527344 134.738281 138.230469 133.425781 C 138.949219 132.121094 139.769531 130.882812 140.691406 129.710938 C 141.578125 128.566406 142.421875 127.449219 142.929688 126.203125 C 143.433594 124.957031 143.695312 123.527344 144.089844 122.097656 C 144.484375 120.628906 145.117188 119.273438 145.980469 118.027344 C 146.824219 116.820312 147.75 115.679688 148.753906 114.605469 C 150.703125 112.460938 152.675781 110.296875 154.953125 108.464844 C 157.230469 106.632812 159.851562 105.15625 162.734375 104.726562 C 159.863281 105.277344 157.332031 106.851562 155.183594 108.742188 C 153.039062 110.632812 151.152344 112.859375 149.300781 115.078125 C 147.445312 117.296875 145.707031 119.613281 145.144531 122.363281 C 144.820312 123.734375 144.636719 125.203125 144.109375 126.660156 C 143.582031 128.117188 142.691406 129.378906 141.863281 130.5625 C 141.03125 131.707031 140.300781 132.914062 139.667969 134.179688 C 139.050781 135.453125 138.519531 136.757812 138.066406 138.101562 C 137.140625 140.792969 136.445312 143.59375 135.582031 146.402344 C 133.832031 152.105469 131.292969 157.429688 127.960938 162.375 Z M 123.898438 162.378906 "/><path style=" stroke:none;fill-rule:nonzero;fill:#14281d;fill-opacity:1;" d="M 274.929688 149.738281 C 276.648438 151.003906 278.535156 151.910156 280.597656 152.453125 C 282.707031 153.011719 284.851562 153.300781 287.03125 153.324219 C 289.242188 153.355469 291.445312 153.226562 293.636719 152.9375 C 295.835938 152.667969 298.027344 152.285156 300.203125 151.796875 C 298.078125 152.457031 295.917969 153.015625 293.722656 153.472656 C 291.523438 153.945312 289.300781 154.257812 287.054688 154.40625 C 284.765625 154.566406 282.488281 154.441406 280.230469 154.035156 C 277.894531 153.613281 275.714844 152.773438 273.699219 151.519531 Z M 274.929688 149.738281 "/><path style=" stroke:none;fill-rule:nonzero;fill:#14281d;fill-opacity:1;" d="M 244.863281 130.523438 C 251.097656 126.828125 256.503906 122.167969 261.074219 116.546875 C 263.359375 113.75 265.464844 110.777344 267.8125 107.976562 C 270.160156 105.179688 272.761719 102.554688 275.882812 100.667969 C 272.863281 102.707031 270.414062 105.4375 268.238281 108.316406 C 266.0625 111.195312 264.101562 114.265625 261.933594 117.210938 C 257.59375 123.121094 252.542969 128.035156 246.371094 132.113281 Z M 244.863281 130.523438 "/><path style=" stroke:none;fill-rule:nonzero;fill:#14281d;fill-opacity:1;" d="M 91.1875 124.347656 C 91.4375 120.128906 92.539062 116.148438 94.492188 112.40625 C 96.375 108.644531 99.359375 105.851562 100.8125 102.320312 C 102.34375 98.773438 102.855469 94.78125 103.761719 90.886719 C 104.222656 88.9375 104.800781 87.003906 105.644531 85.175781 C 106.488281 83.347656 107.617188 81.648438 109.101562 80.3125 C 107.699219 81.734375 106.691406 83.484375 105.976562 85.316406 C 105.28125 87.171875 104.78125 89.078125 104.46875 91.03125 C 103.792969 94.917969 103.550781 98.953125 102.152344 102.855469 C 101.460938 104.808594 100.378906 106.609375 99.304688 108.285156 C 98.230469 109.960938 97.207031 111.589844 96.433594 113.351562 C 94.855469 116.875 94.066406 120.566406 94.070312 124.425781 Z M 91.1875 124.347656 "/><path style=" stroke:none;fill-rule:nonzero;fill:#14281d;fill-opacity:1;" d="M 175.351562 107.425781 C 175.453125 105.378906 175.910156 103.414062 176.730469 101.535156 C 177.515625 99.746094 178.480469 98.0625 179.625 96.480469 C 181.820312 93.332031 184.417969 90.644531 186.558594 87.675781 C 188.707031 84.734375 190.53125 81.445312 190.863281 77.804688 C 191.226562 74.183594 189.628906 70.476562 190.203125 66.734375 C 189.867188 70.503906 191.695312 73.96875 191.582031 77.84375 C 191.511719 79.777344 191.109375 81.640625 190.382812 83.429688 C 189.664062 85.199219 188.789062 86.886719 187.75 88.484375 C 185.722656 91.695312 183.300781 94.566406 181.425781 97.667969 C 179.523438 100.734375 178.136719 104.105469 178.230469 107.449219 Z M 175.351562 107.425781 "/><path style=" stroke:none;fill-rule:nonzero;fill:#14281d;fill-opacity:1;" d="M 58.378906 152.207031 C 59.179688 149.558594 59.699219 146.855469 59.9375 144.101562 C 60.058594 142.71875 60.105469 141.332031 60.082031 139.945312 C 60.070312 139.25 60.039062 138.554688 59.992188 137.859375 C 59.972656 137.511719 59.933594 137.164062 59.902344 136.816406 C 59.882812 136.5 59.839844 136.183594 59.777344 135.871094 C 59.726562 135.625 59.621094 135.40625 59.457031 135.214844 C 59.257812 134.992188 59.03125 134.800781 58.78125 134.640625 L 56.988281 133.496094 C 55.769531 132.710938 54.625 131.828125 53.558594 130.84375 C 52.488281 129.847656 51.609375 128.703125 50.917969 127.410156 C 50.222656 126.125 49.859375 124.753906 49.824219 123.292969 C 49.976562 124.71875 50.445312 126.03125 51.230469 127.234375 C 51.992188 128.410156 52.929688 129.433594 54.035156 130.300781 C 55.136719 131.160156 56.304688 131.917969 57.542969 132.574219 L 59.433594 133.570312 C 59.800781 133.765625 60.136719 134.003906 60.4375 134.292969 C 60.773438 134.625 61.015625 135.015625 61.15625 135.464844 C 61.273438 135.839844 61.359375 136.222656 61.417969 136.613281 C 61.480469 136.96875 61.550781 137.324219 61.601562 137.683594 C 61.714844 138.398438 61.808594 139.117188 61.878906 139.839844 C 62.027344 141.289062 62.101562 142.742188 62.101562 144.199219 C 62.09375 147.140625 61.785156 150.050781 61.171875 152.925781 Z M 58.378906 152.207031 "/><path style=" stroke:none;fill-rule:nonzero;fill:#14281d;fill-opacity:1;" d="M 150.433594 81.914062 C 153.375 79.839844 156.164062 77.578125 158.804688 75.132812 C 156.492188 77.9375 154.003906 80.574219 151.335938 83.042969 Z M 150.433594 81.914062 "/><path style=" stroke:none;fill-rule:nonzero;fill:#14281d;fill-opacity:1;" d="M 222.367188 119.683594 C 223.53125 118.804688 224.417969 117.476562 225.207031 116.03125 C 225.996094 114.582031 226.726562 113.011719 227.726562 111.570312 C 228.722656 110.128906 229.953125 108.957031 230.960938 107.640625 C 231.964844 106.320312 232.785156 104.800781 232.769531 103.089844 C 232.972656 104.792969 232.289062 106.496094 231.40625 107.945312 C 230.523438 109.394531 229.414062 110.71875 228.644531 112.144531 C 227.875 113.570312 227.332031 115.144531 226.671875 116.730469 C 226.007812 118.320312 225.191406 119.980469 223.78125 121.320312 Z M 222.367188 119.683594 "/><path style=" stroke:none;fill-rule:nonzero;fill:#14281d;fill-opacity:1;" d="M 184.660156 90.835938 C 185.765625 90.527344 186.84375 89.992188 187.929688 89.429688 C 189.019531 88.863281 190.09375 88.269531 191.140625 87.644531 C 193.261719 86.394531 195.3125 85.039062 197.292969 83.574219 C 201.265625 80.625 204.894531 77.292969 208.171875 73.585938 C 205.0625 77.46875 201.582031 80.988281 197.734375 84.144531 C 195.804688 85.71875 193.800781 87.191406 191.71875 88.558594 C 190.679688 89.246094 189.613281 89.894531 188.539062 90.527344 C 187.464844 91.15625 186.34375 91.785156 185.085938 92.214844 Z M 184.660156 90.835938 "/><path style=" stroke:none;fill-rule:nonzero;fill:#14281d;fill-opacity:1;" d="M 212.675781 87.152344 C 212.796875 85.773438 212.980469 84.328125 213.535156 82.96875 C 214.085938 81.609375 215.003906 80.503906 215.855469 79.441406 C 217.582031 77.308594 219.421875 75.28125 221.382812 73.359375 C 219.609375 75.4375 217.957031 77.605469 216.433594 79.871094 C 215.675781 81 214.921875 82.128906 214.550781 83.339844 C 214.179688 84.550781 214.113281 85.875 214.117188 87.214844 Z M 212.675781 87.152344 "/><path style=" stroke:none;fill-rule:nonzero;fill:#14281d;fill-opacity:1;" d="M 257.199219 94.707031 C 257.640625 93.53125 257.65625 92.351562 257.242188 91.164062 C 257.046875 90.574219 256.765625 89.980469 256.632812 89.304688 C 256.519531 88.652344 256.496094 87.996094 256.570312 87.335938 C 256.703125 86.046875 256.90625 84.800781 256.875 83.519531 C 256.859375 82.238281 256.699219 80.976562 256.398438 79.730469 C 256.761719 80.96875 256.976562 82.230469 257.054688 83.515625 C 257.152344 84.800781 257 86.097656 256.929688 87.359375 C 256.890625 87.980469 256.9375 88.597656 257.074219 89.207031 C 257.21875 89.796875 257.511719 90.355469 257.75 90.96875 C 258.273438 92.277344 258.316406 93.601562 257.878906 94.945312 Z M 257.199219 94.707031 "/><path style=" stroke:none;fill-rule:nonzero;fill:#14281d;fill-opacity:1;" d="M 110.984375 151.8125 C 109.507812 151.082031 107.25 151.242188 105.144531 151.542969 C 103.003906 151.863281 100.800781 152.417969 98.480469 152.710938 C 96.15625 153.007812 93.691406 152.96875 91.359375 152.136719 C 90.171875 151.71875 89.121094 151.082031 88.199219 150.21875 C 87.34375 149.367188 86.625 148.410156 86.046875 147.347656 C 85.472656 146.347656 84.976562 145.339844 84.425781 144.394531 C 83.867188 143.449219 83.242188 142.546875 82.554688 141.691406 C 81.15625 139.964844 79.683594 138.246094 78.222656 136.550781 C 75.285156 133.171875 72.144531 129.929688 68.394531 127.433594 C 72.28125 129.726562 75.621094 132.835938 78.753906 136.070312 C 80.320312 137.699219 81.859375 139.3125 83.382812 141.007812 C 84.15625 141.863281 84.859375 142.773438 85.5 143.734375 C 86.132812 144.699219 86.679688 145.683594 87.28125 146.605469 C 87.832031 147.507812 88.5 148.3125 89.289062 149.019531 C 90.070312 149.671875 90.949219 150.140625 91.929688 150.425781 C 93.890625 151.011719 96.0625 150.933594 98.15625 150.570312 C 100.28125 150.191406 102.417969 149.53125 104.699219 149.050781 C 105.871094 148.804688 107.050781 148.648438 108.246094 148.582031 C 109.472656 148.53125 110.824219 148.617188 112.15625 149.171875 Z M 110.984375 151.8125 "/><path style=" stroke:none;fill-rule:nonzero;fill:#14281d;fill-opacity:1;" d="M 115.910156 209.601562 C 120.855469 209.753906 125.597656 208.835938 130.132812 206.855469 C 125.683594 209.210938 120.945312 210.5 115.917969 210.722656 Z M 115.910156 209.601562 "/><path style=" stroke:none;fill-rule:nonzero;fill:#14281d;fill-opacity:1;" d="M 194.113281 135.523438 C 195.285156 132.226562 197.460938 129.535156 199.90625 127.34375 C 202.351562 125.152344 205.125 123.410156 207.859375 121.683594 C 205.328125 123.703125 202.792969 125.734375 200.671875 128.109375 C 198.550781 130.480469 196.867188 133.207031 196.1875 136.140625 Z M 194.113281 135.523438 "/><path style=" stroke:none;fill-rule:nonzero;fill:#14281d;fill-opacity:1;" d="M 277.730469 114.351562 C 277.875 113.535156 278.378906 113.046875 278.753906 112.660156 C 279.132812 112.277344 279.53125 111.925781 279.9375 111.574219 C 280.734375 110.863281 281.554688 110.1875 282.398438 109.546875 C 284.082031 108.265625 285.851562 107.117188 287.710938 106.101562 C 285.992188 107.308594 284.375 108.636719 282.859375 110.089844 C 282.109375 110.8125 281.386719 111.558594 280.695312 112.335938 C 280.0625 113.085938 279.132812 114 279.164062 114.511719 Z M 277.730469 114.351562 "/><path style=" stroke:none;fill-rule:nonzero;fill:#14281d;fill-opacity:1;" d="M 125.375 124.527344 C 126.851562 123.25 128.53125 122.410156 130.164062 121.769531 C 131.800781 121.125 133.429688 120.621094 134.980469 120 C 136.542969 119.410156 137.988281 118.605469 139.316406 117.585938 C 140.648438 116.5625 141.875 115.367188 143.09375 114.171875 C 142.054688 115.523438 141.007812 116.882812 139.792969 118.125 C 138.554688 119.386719 137.160156 120.445312 135.609375 121.296875 C 134.089844 122.167969 132.53125 122.894531 131.101562 123.71875 C 129.667969 124.542969 128.371094 125.457031 127.40625 126.574219 Z M 125.375 124.527344 "/><path style=" stroke:none;fill-rule:nonzero;fill:#14281d;fill-opacity:1;" d="M 192.558594 86.953125 C 195.21875 83.09375 196.769531 78.832031 197.203125 74.164062 C 197.003906 78.910156 195.65625 83.304688 193.164062 87.347656 Z M 192.558594 86.953125 "/></g></svg>